<?xml version="1.0" encoding="UTF-8"?>
<svg width="73px" height="68px" viewBox="0 0 73 68" version="1.1" xmlns="http://www.w3.org/2000/svg" xmlns:xlink="http://www.w3.org/1999/xlink">
    <title>Group 14</title>
    <defs>
        <filter id="filter-1">
            <feColorMatrix in="SourceGraphic" type="matrix" values="0 0 0 0 1.000000 0 0 0 0 1.000000 0 0 0 0 1.000000 0 0 0 1.000000 0"></feColorMatrix>
        </filter>
        <polygon id="path-2" points="0.850291304 0.16424186 34.0097478 0.16424186 34.0097478 45.744186 0.850291304 45.744186"></polygon>
    </defs>
    <g id="🛠-symbols" stroke="none" stroke-width="1" fill="none" fill-rule="evenodd">
        <g id="Group-14" transform="translate(-9.000000, -2.000000)" filter="url(#filter-1)">
            <g transform="translate(9.000000, 2.000000)">
                <g id="Group-13" transform="translate(0.000000, 0.534050)">
                    <polygon id="Fill-1" fill="#FFFFFF" points="63.0037609 36.3716651 72.9508043 36.3716651 72.9508043 29.8602 63.0037609 29.8602"></polygon>
                    <polygon id="Fill-2" fill="#FFFFFF" points="64.6115065 10.0942651 59.92205 5.49307907 52.8886587 12.3956372 57.5781152 16.9999395"></polygon>
                    <polygon id="Fill-3" fill="#FFFFFF" points="20.0604 12.395014 13.0254217 5.49245581 8.33755217 10.0936419 15.3709435 16.9993163"></polygon>
                    <polygon id="Fill-4" fill="#FFFFFF" points="0 36.3716651 9.94704348 36.3716651 9.94704348 29.8602 0 29.8602"></polygon>
                    <polygon id="Fill-5" fill="#FFFFFF" points="8.33802826 56.1377558 13.0274848 60.7436163 20.0592891 53.8363837 15.3714196 49.2320814"></polygon>
                    <polygon id="Fill-6" fill="#FFFFFF" points="52.8889761 53.837007 59.9223674 60.7426814 64.6118239 56.1383791 57.5784326 49.2327047"></polygon>
                    <g id="Group-12" transform="translate(19.043478, 0.230619)">
                        <path d="M27.3783326,10.0940953 C27.3783326,4.70916512 22.9158109,0.327676744 17.4297022,0.327676744 C11.9451804,0.327676744 7.4826587,4.70916512 7.4826587,10.0940953 C7.4826587,15.4805837 11.9451804,19.8620721 17.4297022,19.8620721 C22.9158109,19.8620721 27.3783326,15.4805837 27.3783326,10.0940953 M17.4297022,13.350607 C15.6031152,13.350607 14.116137,11.8906302 14.116137,10.0940953 C14.116137,8.30067674 15.6031152,6.83914186 17.4297022,6.83914186 C19.259463,6.83914186 20.7464413,8.30067674 20.7464413,10.0940953 C20.7464413,11.8906302 19.259463,13.350607 17.4297022,13.350607" id="Fill-7" fill="#FFFFFF"></path>
                        <g id="Group-11" transform="translate(0.000000, 19.697674)">
                            <mask id="mask-3" fill="white">
                                <use xlink:href="#path-2"></use>
                            </mask>
                            <g id="Clip-10"></g>
                            <path d="M34.0097478,16.4421256 C34.0097478,7.46724186 26.5716826,0.16424186 17.430813,0.16424186 C8.28994348,0.16424186 0.850291304,7.46724186 0.850291304,16.4421256 L0.850291304,26.2101023 C0.850291304,28.0081953 2.33568261,29.4650558 4.16544348,29.4650558 L7.48218261,29.4650558 L7.48218261,42.487986 C7.48218261,44.2876372 8.96757391,45.7444977 10.7989217,45.7444977 L24.0627043,45.7444977 C25.8940522,45.7444977 27.3794435,44.2876372 27.3794435,42.487986 L27.3794435,29.4650558 L30.6945957,29.4650558 C32.5259435,29.4650558 34.0097478,28.0081953 34.0097478,26.2101023 L34.0097478,16.4421256 Z M27.3794435,22.9535907 L24.0627043,22.9535907 C22.2313565,22.9535907 20.7475522,24.4151256 20.7475522,26.2101023 L20.7475522,39.2314744 L14.1140739,39.2314744 L14.1140739,26.2101023 C14.1140739,24.4151256 12.6286826,22.9535907 10.7989217,22.9535907 L7.48218261,22.9535907 L7.48218261,16.4421256 C7.48218261,11.0556372 11.9447043,6.67570698 17.430813,6.67570698 C22.9169217,6.67570698 27.3794435,11.0556372 27.3794435,16.4421256 L27.3794435,22.9535907 Z" id="Fill-9" fill="#FFFFFF" mask="url(#mask-3)"></path>
                        </g>
                    </g>
                </g>
            </g>
        </g>
    </g>
</svg>