<?xml version="1.0" encoding="UTF-8"?>
<svg width="160px" height="48px" viewBox="0 0 160 48" version="1.1" xmlns="http://www.w3.org/2000/svg" xmlns:xlink="http://www.w3.org/1999/xlink">
    <title>logo</title>
    <defs>
        <filter id="filter-1">
            <feColorMatrix in="SourceGraphic" type="matrix" values="0 0 0 0 1.000000 0 0 0 0 1.000000 0 0 0 0 1.000000 0 0 0 1.000000 0"></feColorMatrix>
        </filter>
        <polygon id="path-2" points="0.176945455 0.247672727 19.8329455 0.247672727 19.8329455 32 0.176945455 32"></polygon>
        <polygon id="path-4" points="0.263689014 0.101590805 25.8443944 0.101590805 25.8443944 31.7815908 0.263689014 31.7815908"></polygon>
    </defs>
    <g id="🛠-symbols" stroke="none" stroke-width="1" fill="none" fill-rule="evenodd">
        <g id="01-nav-/-menu-top" transform="translate(-165.000000, -13.000000)">
            <g id="logo" transform="translate(165.000000, 13.000000)" filter="url(#filter-1)">
                <g transform="translate(0.000000, 0.800000)">
                    <path d="M10.5983006,44.3055468 C12.4857345,44.3055468 14.192051,44.1478771 15.7161502,43.8303222 C17.240616,43.5138751 18.7526162,42.795315 20.2532508,41.6735341 C21.0756118,41.0406399 21.7417865,40.4306392 22.2495751,39.8457475 C22.7577304,39.2608558 23.1808265,38.7376288 23.5199633,38.273851 C23.8580003,37.811181 24.1373757,37.4456237 24.3547899,37.1771791 C24.5725707,36.9098422 24.827015,36.775066 25.1173894,36.775066 C25.7941965,36.775066 26.1333333,37.3359565 26.1333333,38.4566297 C26.1333333,41.3810882 25.5525844,43.3916535 24.3910867,44.4883254 C23.2295889,45.5849974 21.4627777,46.1333333 19.0917531,46.1333333 C18.9469325,46.1333333 18.6924882,46.1207788 18.3298868,46.0967776 C17.9669187,46.0716686 17.5185249,46.0602219 16.986905,46.0602219 L12.8490692,45.9139989 L7.98493058,45.767776 L5.22673999,45.767776 C3.38660194,45.767776 2.05608571,43.9399894 1.23372475,40.2844163 C0.410263893,36.6288431 0,30.9992604 0,23.3956683 C0,19.5938722 0.132355018,16.2307448 0.399264861,13.3062863 C0.664341531,10.3818278 1.01594392,7.93259377 1.45187222,5.95858426 C1.88706725,3.98457475 2.35892572,2.49834425 2.867081,1.498785 C3.37560291,0.500333499 3.87092599,0 4.35561666,0 C5.32279821,0 6.27934735,1.8894513 7.22269766,5.6661384 C8.16641461,9.44393326 8.63827308,14.9638487 8.63827308,22.2258848 C8.63827308,25.3947867 8.52938266,28.8059165 8.31196846,32.4614897 C8.09382099,36.1170629 7.74221861,39.772636 7.2593611,43.4282092 L7.18640086,44.0862124 C8.34789863,44.2324353 9.48446527,44.3055468 10.5983006,44.3055468" id="Fill-1" fill="#E6007E"></path>
                    <path d="M39.4486708,31.382466 C38.3685443,32.1381594 37.4479271,32.9167303 36.6875627,33.7203925 C35.9260829,34.5244237 35.3501394,35.4011462 34.9578732,36.3505598 C34.5641197,37.3003425 34.3689162,38.457867 34.3689162,39.8209195 C34.3689162,41.3806441 34.7117308,42.5975762 35.3992192,43.4742986 C36.0863358,44.3510211 36.9935676,44.7890133 38.1235174,44.7890133 C39.3014315,44.7890133 40.2216769,44.5336716 40.8838818,44.0218812 C41.5468303,43.5104597 42.0368842,42.7802267 42.3562744,41.8300751 C42.6752928,40.8802924 42.8831381,39.7238749 42.9824131,38.3597154 C43.0802008,36.9966629 43.1292805,35.4627677 43.1292805,33.7572916 L43.1292805,28.7891978 C41.7546756,29.7637028 40.5273099,30.6278796 39.4486708,31.382466 M40.2584867,45.8118561 C38.6868191,46.590427 36.8716118,46.9808194 34.8102621,46.9808194 C32.3075665,46.9808194 30.3678007,46.347631 28.994683,45.0812541 C27.6200781,43.8152462 26.9333333,42.037817 26.9333333,39.7478593 C26.9333333,37.361964 27.7431493,35.5354589 29.3627812,34.268344 C30.0000744,33.7329382 30.7121026,33.2820313 31.4973787,32.9167303 C32.282283,32.5514293 33.1047407,32.1986739 33.9640082,31.8573573 C34.8221603,31.5171477 35.681056,31.1887458 36.5406953,30.8710446 C37.3984756,30.5548194 38.2707566,30.202433 39.1541922,29.8116716 C40.7734523,29.0331008 41.9149284,28.0947569 42.5775051,26.9988538 C43.23971,25.9029508 43.5713701,24.430308 43.5713701,22.5790805 C43.5713701,18.5367849 42.1722253,16.5147147 39.3750511,16.5147147 C38.2454731,16.5147147 37.3137014,16.8195012 36.5771333,17.4283362 C35.8413088,18.0375402 35.2029002,18.9987616 34.6633947,20.3138452 C34.3194646,21.1425988 34.0491541,21.8732009 33.8532069,22.5056513 C33.6568879,23.1392087 33.4728388,23.700075 33.3014315,24.186036 C33.1289087,24.673473 32.9333333,25.039143 32.7124744,25.281939 C32.4916155,25.526211 32.2082915,25.6472401 31.8654769,25.6472401 C31.3248559,25.6472401 30.8098903,25.2579546 30.3194646,24.4782768 C29.828667,23.700075 29.5836401,22.6768631 29.5836401,21.4101173 C29.5836401,19.6566724 30.5035137,18.1836606 32.3443763,16.989606 C34.1848671,15.7970273 36.7247444,15.2 39.9640082,15.2 C42.1227737,15.2 43.9026585,15.5409476 45.3010597,16.2224739 C46.7002045,16.9054761 47.8160253,17.9759187 48.6511247,19.4371228 C49.4847369,20.8983269 50.073694,22.7499233 50.4179959,24.9896982 C50.7608106,27.2305801 50.9333333,29.8847318 50.9333333,32.9532604 C50.9333333,37.6294824 50.5894032,41.1725332 49.9022867,43.5835199 C49.2147983,45.9948756 48.5038855,47.2 47.7676892,47.2 C46.7849786,47.2 45.7305075,45.6177669 44.6016732,42.4510868 L44.5284254,42.0857858 C43.2516081,43.7912618 41.8282952,45.0332853 40.2584867,45.8118561" id="Fill-3" fill="#E6007E"></path>
                    <path d="M60.8733333,44.4393651 C63.4051936,44.4393651 65.6391667,44.341536 67.5745286,44.1447619 C69.5091667,43.9491037 71.2168603,43.507199 72.6986953,42.8190476 C73.5586953,42.4266154 74.275,41.9973577 74.8483333,41.5301587 C75.4216667,41.0640757 75.9113889,40.6463492 76.317862,40.2777233 C76.7228872,39.9098413 77.0580556,39.6037069 77.3208333,39.3574603 C77.5828872,39.1123296 77.8586953,38.9892063 78.145362,38.9892063 C78.6701936,38.9892063 78.9333333,39.4564053 78.9333333,40.3885714 C78.9333333,44.2184127 76.7351936,46.1333333 72.340362,46.1333333 L71.480362,46.1333333 C71.0970539,46.1333333 70.5718603,46.1080391 69.9033333,46.0596825 L65.675362,45.8387302 C65.1020286,45.7903736 64.6235269,45.7647074 64.2420286,45.7647074 L63.31,45.7647074 C62.5933333,45.7647074 61.8520539,45.7903736 61.0886953,45.8387302 C60.3235269,45.8882027 59.5355556,45.912381 58.7236953,45.912381 L57.5770286,45.912381 C56.5251936,45.912381 56,45.4701042 56,44.5866667 C56,42.1320122 57.5882492,38.6577778 60.7658333,34.1650794 C63.9426936,29.672381 68.3740825,24.0633895 74.060362,17.335873 L74.6336953,16.6730159 L71.695,16.6730159 C69.5920539,16.6730159 67.8130556,16.7593138 66.3558333,16.9307937 C64.8978872,17.1033895 63.6205556,17.5564534 62.5220286,18.2933333 C61.9005556,18.7352381 61.4108333,19.2266154 61.0525,19.7663492 C60.6945286,20.307199 60.3955556,20.8101074 60.1570286,21.2761905 C59.9170539,21.7433895 59.6785269,22.1484688 59.44,22.4914286 C59.2003872,22.8355042 58.9137205,23.0069841 58.58,23.0069841 C58.150362,23.0069841 57.7793603,22.6513773 57.4695286,21.9390476 C57.1578872,21.2278339 57.0036953,20.1840757 57.0036953,18.8088889 C57.0036953,17.5326471 57.290362,16.6120122 57.8636953,16.0469841 C58.4370286,15.483072 59.4157492,15.2 60.8020286,15.2 C61.6135269,15.2 62.45,15.2252942 63.31,15.2736508 C64.17,15.3231233 65.1020286,15.3473016 66.105,15.3473016 L69.33,15.3473016 C70.0470286,15.3473016 70.9895539,15.3231233 72.1611953,15.2736508 C73.3310269,15.2252942 74.7524158,15.2 76.425362,15.2 C77.2368603,15.2 77.7870286,15.3599487 78.0736953,15.6787302 C78.360362,15.9986275 78.5033333,16.6246593 78.5033333,17.5564534 C78.5033333,20.208254 77.0580556,23.7066667 74.1675,28.0520635 C71.2762205,32.3974603 66.8451936,37.6393138 60.8733333,43.7765079 L60.2286953,44.4393651 L60.8733333,44.4393651 Z" id="Fill-5" fill="#E6007E"></path>
                    <path d="M94.3820041,31.382466 C93.3018777,32.1381594 92.3812605,32.9167303 91.6208961,33.7203925 C90.8594162,34.5244237 90.2834728,35.4011462 89.8912065,36.3505598 C89.4974531,37.3003425 89.3022495,38.457867 89.3022495,39.8209195 C89.3022495,41.3806441 89.6450641,42.5975762 90.3325525,43.4742986 C91.0196691,44.3510211 91.9269009,44.7890133 93.0568507,44.7890133 C94.2347648,44.7890133 95.1550102,44.5336716 95.8172151,44.0218812 C96.4801636,43.5104597 96.9702175,42.7802267 97.2896077,41.8300751 C97.6086261,40.8802924 97.8164715,39.7238749 97.9157464,38.3597154 C98.0135341,36.9966629 98.0626139,35.4627677 98.0626139,33.7572916 L98.0626139,28.7891978 C96.6880089,29.7637028 95.4606432,30.6278796 94.3820041,31.382466 M95.19182,45.8118561 C93.6201524,46.590427 91.8049452,46.9808194 89.7435955,46.9808194 C87.2408998,46.9808194 85.301134,46.347631 83.9280164,45.0812541 C82.5534114,43.8152462 81.8666667,42.037817 81.8666667,39.7478593 C81.8666667,37.361964 82.6764826,35.5354589 84.2961145,34.268344 C84.9334077,33.7329382 85.645436,33.2820313 86.430712,32.9167303 C87.2156163,32.5514293 88.038074,32.1986739 88.8973415,31.8573573 C89.7554936,31.5171477 90.6143893,31.1887458 91.4740286,30.8710446 C92.3318089,30.5548194 93.20409,30.202433 94.0875256,29.8116716 C95.7067856,29.0331008 96.8482618,28.0947569 97.5108384,26.9988538 C98.1730433,25.9029508 98.5047035,24.430308 98.5047035,22.5790805 C98.5047035,18.5367849 97.1055587,16.5147147 94.3083845,16.5147147 C93.1788065,16.5147147 92.2470348,16.8195012 91.5104666,17.4283362 C90.7746421,18.0375402 90.1362335,18.9987616 89.596728,20.3138452 C89.2527979,21.1425988 88.9824875,21.8732009 88.7865402,22.5056513 C88.5902212,23.1392087 88.4061722,23.700075 88.2347648,24.186036 C88.0622421,24.673473 87.8666667,25.039143 87.6458078,25.281939 C87.4249489,25.526211 87.1416248,25.6472401 86.7988102,25.6472401 C86.2581893,25.6472401 85.7432236,25.2579546 85.2527979,24.4782768 C84.7620004,23.700075 84.5169734,22.6768631 84.5169734,21.4101173 C84.5169734,19.6566724 85.436847,18.1836606 87.2777096,16.989606 C89.1182004,15.7970273 91.6580777,15.2 94.8973415,15.2 C97.0561071,15.2 98.8359918,15.5409476 100.234393,16.2224739 C101.633538,16.9054761 102.749359,17.9759187 103.584458,19.4371228 C104.41807,20.8983269 105.007027,22.7499233 105.351329,24.9896982 C105.694144,27.2305801 105.866667,29.8847318 105.866667,32.9532604 C105.866667,37.6294824 105.522737,41.1725332 104.83562,43.5835199 C104.148132,45.9948756 103.437219,47.2 102.701022,47.2 C101.718312,47.2 100.663841,45.6177669 99.5350065,42.4510868 L99.4617587,42.0857858 C98.1849414,43.7912618 96.7616286,45.0332853 95.19182,45.8118561" id="Fill-7" fill="#E6007E"></path>
                    <g id="Group-11" transform="translate(113.066667, 14.133333)">
                        <mask id="mask-3" fill="white">
                            <use xlink:href="#path-2"></use>
                        </mask>
                        <g id="Clip-10"></g>
                        <path d="M6.3824,5.07203636 C9.25367273,2.00076364 12.1762182,0.464036364 15.1529455,0.464036364 C16.6402182,0.464036364 17.7922182,0.823672727 18.6089455,1.54403636 C19.4245818,2.26367273 19.8329455,3.24803636 19.8329455,4.49603636 C19.8329455,5.88876364 19.5922182,7.0044 19.1129455,7.84403636 C18.6325818,8.6844 18.1285818,9.10403636 17.6009455,9.10403636 C17.1205818,9.10403636 16.7369455,8.80476364 16.4489455,8.20367273 C16.1609455,7.6044 15.7042182,6.80003636 15.0809455,5.79167273 C14.0245818,4.16076364 12.8002182,3.34403636 11.4089455,3.34403636 C9.00821818,3.34403636 7.80894545,5.57603636 7.80894545,10.0400364 L7.80894545,15.0796727 C7.80894545,17.8160364 7.67730909,20.2280364 7.41621818,22.3160364 C7.15512727,24.4040364 6.83330909,26.1680364 6.45330909,27.6080364 C6.07294545,29.0480364 5.65694545,30.1404 5.20567273,30.8836727 C4.75367273,31.6273091 4.33730909,32.0000364 3.95694545,32.0000364 C3.57658182,32.0000364 3.17185455,31.6513091 2.74421818,30.9560364 C2.31658182,30.2607636 1.91149091,29.2280364 1.53149091,27.8600364 C1.15112727,26.4916727 0.829309091,24.8124 0.568581818,22.8200364 C0.307490909,20.8287636 0.176945455,18.5607636 0.176945455,16.0160364 C0.176945455,10.8320364 0.474036364,6.90803636 1.06785455,4.24403636 C1.66203636,1.57967273 2.38749091,0.247672727 3.24349091,0.247672727 C4.19403636,0.247672727 5.24058182,1.85676364 6.3824,5.07203636" id="Fill-9" fill="#E6007E" mask="url(#mask-3)"></path>
                    </g>
                    <g id="Group-14" transform="translate(133.866667, 15.200000)">
                        <mask id="mask-5" fill="white">
                            <use xlink:href="#path-4"></use>
                        </mask>
                        <g id="Clip-13"></g>
                        <path d="M19.1396853,13.2833839 L19.1396853,12.3366253 C19.1396853,8.69487816 18.702412,5.96421149 17.8278655,4.14315402 C16.9533191,2.32283218 15.7140101,1.41248736 14.1106749,1.41248736 C10.4667313,1.41248736 8.42612282,5.46692414 7.98921765,13.5746943 L19.1396853,13.2833839 Z M24.7509904,25.1539126 C23.778904,27.4843954 22.4188665,29.1723034 20.6697735,30.2157977 C18.9206806,31.259292 16.6618036,31.7815908 13.8920383,31.7815908 C9.51930592,31.7815908 6.15436319,30.4706943 3.79831437,27.8489011 C1.44152939,25.227108 0.263689014,21.4157977 0.263689014,16.4149701 C0.263689014,13.9388322 0.603054272,11.6936828 1.28399324,9.67841839 C1.96382798,7.66425747 2.92376789,5.9528092 4.16270873,4.54407356 C5.40164958,3.13644138 6.89566648,2.04365977 8.64475944,1.26683218 C10.3938524,0.49074023 12.312628,0.101590805 14.4025585,0.101590805 C17.9485942,0.101590805 20.7426524,1.21901609 22.7832608,3.45165977 C24.8238693,5.6854069 25.8445416,8.79308506 25.8445416,12.773223 L25.8445416,13.4290391 C25.8445416,13.7689011 25.8191444,14.255154 25.7716627,14.885223 L7.98921765,14.885223 L7.98921765,16.1236598 C7.98921765,20.9792 8.59580545,24.5602575 9.81082141,26.8657287 C11.0247331,29.1723034 13.0174918,30.3250391 15.7872571,30.3250391 C19.187535,30.3250391 21.7633247,28.4565333 23.5124177,24.7173149 L23.5849285,24.4988322 L24.7509904,25.1539126 Z" id="Fill-12" fill="#E6007E" mask="url(#mask-5)"></path>
                    </g>
                </g>
            </g>
        </g>
    </g>
</svg>