<?xml version="1.0" encoding="UTF-8"?>
<svg width="90px" height="70px" viewBox="0 0 90 70" version="1.1" xmlns="http://www.w3.org/2000/svg" xmlns:xlink="http://www.w3.org/1999/xlink">
    <title>maison</title>
    <defs>
        <filter id="filter-1">
            <feColorMatrix in="SourceGraphic" type="matrix" values="0 0 0 0 1.000000 0 0 0 0 1.000000 0 0 0 0 1.000000 0 0 0 1.000000 0"></feColorMatrix>
        </filter>
        <polygon id="path-2" points="0 0.534050179 89 0.534050179 89 67.5340502 0 67.5340502"></polygon>
    </defs>
    <g id="🛠-symbols" stroke="none" stroke-width="1" fill="none" fill-rule="evenodd">
        <g id="maison" filter="url(#filter-1)">
            <g>
                <mask id="mask-3" fill="white">
                    <use xlink:href="#path-2"></use>
                </mask>
                <g id="Clip-2"></g>
                <path d="M13.9536072,34.0332732 L42.6860173,9.16332073 L74.2910405,34.0332732 L13.9536072,34.0332732 Z M69.6509069,60.0904691 L38.6957536,60.0904691 L38.6957536,45.2001989 L27.0875711,45.2001989 L27.0875711,60.0904691 L19.3487828,60.0904691 L19.3487828,41.4784083 L46.4329722,41.4784083 L46.4329722,52.4448701 L61.9136883,52.4448701 L61.9136883,41.4784083 L69.6509069,41.4784083 L69.6509069,60.0904691 Z M65.7815128,15.4227664 L69.6509069,15.4227664 L69.6509069,20.7669158 L65.7815128,17.721108 L65.7815128,15.4227664 Z M87.580408,34.8786402 L77.3896953,26.8554233 L77.3896953,11.7009758 C77.3896953,9.6481636 75.6582787,7.9776313 73.5203011,7.9776313 L61.9136883,7.9776313 C59.7992567,7.9776313 58.0913862,9.61708393 58.056852,11.6403705 L45.0155024,1.37786324 C44.3012735,0.813767215 43.4316409,0.534050179 42.5651478,0.534050179 C41.637435,0.534050179 40.711292,0.854170787 39.9766565,1.49130404 L1.28271483,34.9889731 C0.0912867685,36.0208181 -0.316844056,37.6525008 0.256108832,39.0899356 C0.832201189,40.5289244 2.26850775,41.4784083 3.86963637,41.4784083 L11.6084247,41.4784083 L11.6084247,63.8107056 C11.6084247,65.8681798 13.341411,67.5340502 15.4793886,67.5340502 L73.5203011,67.5340502 C75.6582787,67.5340502 77.3896953,65.8681798 77.3896953,63.8107056 L77.3896953,41.4784083 L85.1300533,41.4784083 C86.7657161,41.4784083 88.2239989,40.4885208 88.7749755,39.0060205 C89.3243824,37.5266282 88.8456136,35.8716357 87.580408,34.8786402 L87.580408,34.8786402 Z" id="Fill-1" fill="#FFFFFF" mask="url(#mask-3)"></path>
            </g>
        </g>
    </g>
</svg>