<?xml version="1.0" encoding="UTF-8"?>
<svg width="44px" height="68px" viewBox="0 0 44 68" version="1.1" xmlns="http://www.w3.org/2000/svg" xmlns:xlink="http://www.w3.org/1999/xlink">
    <title>Group</title>
    <g id="🛠-symbols" stroke="none" stroke-width="1" fill="none" fill-rule="evenodd">
        <g id="00-icono-picto-/-porte-ouverte" transform="translate(-23.000000, -1.000000)" fill="#FFFFFF" fill-rule="nonzero">
            <g id="Group" transform="translate(23.896227, 1.001684)">
                <path d="M22.9127936,0.144034715 C24.7911291,-0.455107311 26.7082388,0.887670966 26.8193851,2.8244835 L26.8244629,3.00215632 L26.8244629,64.998316 C26.8244629,66.923884 25.0430322,68.3342735 23.1911795,67.9308933 L23.0174142,67.887723 L5.01741424,62.8600907 C3.42163885,62.4143701 2.48933528,60.7594105 2.93505594,59.1636351 C3.364858,57.6248517 4.91906713,56.7029956 6.4603669,57.0387616 L6.63151152,57.0812768 L20.8237725,61.045316 L20.8237725,7.10731604 L6.73613216,11.6018275 C5.21401008,12.0873464 3.59025954,11.2943653 3.02476062,9.82176396 L2.96634127,9.65537522 C2.48082241,8.13325314 3.27380351,6.5095026 4.74640487,5.94400367 L4.9127936,5.88558433 L22.9127936,0.144034715 Z" id="Path-3"></path>
                <path d="M3,3.21870365 C4.59768088,3.21870365 5.90366088,4.46762362 5.99490731,6.04243086 L6,6.21870365 L6,61.9192008 C6,63.576055 4.65685425,64.9192008 3,64.9192008 C1.40231912,64.9192008 0.0963391206,63.6702808 0.00509269341,62.0954736 L0,61.9192008 L0,6.21870365 C0,4.5618494 1.34314575,3.21870365 3,3.21870365 Z" id="Path-2"></path>
                <path d="M40,3.49831604 C41.5976809,3.49831604 42.9036609,4.747236 42.9949073,6.32204325 L43,6.49831604 L43,61.9192008 C43,63.576055 41.6568542,64.9192008 40,64.9192008 C38.4023191,64.9192008 37.0963391,63.6702808 37.0050927,62.0954736 L37,61.9192008 L36.9997725,9.49731604 L33,9.49831604 C31.4023191,9.49831604 30.0963391,8.24939607 30.0050927,6.67458882 L30,6.49831604 C30,4.90063515 31.24892,3.59465516 32.8237272,3.50340873 L33,3.49831604 L40,3.49831604 Z" id="Path-2"></path>
                <path d="M16.1037725,34.0443452 C17.7014534,34.0443452 19.0074334,35.2932652 19.0986798,36.8680724 L19.1037725,37.0443452 L19.1037725,37.68013 C19.1037725,39.3369842 17.7606268,40.68013 16.1037725,40.68013 C14.5060917,40.68013 13.2001117,39.43121 13.1088652,37.8564028 L13.1037725,37.68013 L13.1037725,37.0443452 C13.1037725,35.3874909 14.4469183,34.0443452 16.1037725,34.0443452 Z" id="Path-4"></path>
            </g>
        </g>
    </g>
</svg>