<svg width="90" height="69" xmlns="http://www.w3.org/2000/svg"><path d="M81 32.393V.534h-9v4.5H17.998v-4.5H9.001v31.859c-2.174.785-4.321 1.615-6.418 2.546C1.007 35.642 0 37.137 0 38.784v29.75h9v-8.5h72v8.5h9v-29.75c0-1.647-1.007-3.142-2.583-3.845-2.097-.931-4.244-1.761-6.416-2.546zm-9-17.86v15.055c-7.313-1.885-19.383-3.028-27-3.338V14.533h27zm-54.002 0H45v11.711c-7.617.31-19.687 1.46-27.002 3.344V14.533zM9.001 41.526c22.487-9.165 49.511-9.165 72 0v10.007H9V41.526z" fill="#E6007E" fill-rule="evenodd"/></svg>