<?xml version="1.0" encoding="UTF-8"?>
<svg width="34px" height="66px" viewBox="0 0 34 66" version="1.1" xmlns="http://www.w3.org/2000/svg" xmlns:xlink="http://www.w3.org/1999/xlink">
    <title>Group 17</title>
    <defs>
        <filter id="filter-1">
            <feColorMatrix in="SourceGraphic" type="matrix" values="0 0 0 0 0.902000 0 0 0 0 0.000000 0 0 0 0 0.494000 0 0 0 1.000000 0"></feColorMatrix>
        </filter>
    </defs>
    <g id="🛠-symbols" stroke="none" stroke-width="1" fill="none" fill-rule="evenodd">
        <g id="Group-17" transform="translate(-28.000000, -2.000000)" filter="">
            <g transform="translate(28.000000, 2.000000)">
                <path d="M16.3442434,20 C10.8299026,20 6.34482759,15.5137566 6.34482759,9.99941585 C6.34482759,4.48624336 10.8299026,0 16.3442434,0 C21.8585842,0 26.3448276,4.48624336 26.3448276,9.99941585 C26.3448276,15.5137566 21.8585842,20 16.3442434,20 M16.3442434,6.66627724 C14.5065193,6.66627724 13.0111048,8.16169169 13.0111048,9.99941585 C13.0111048,11.8406449 14.5065193,13.3337228 16.3442434,13.3337228 C18.1819676,13.3337228 19.6785504,11.8406449 19.6785504,9.99941585 C19.6785504,8.16169169 18.1819676,6.66627724 16.3442434,6.66627724" id="Fill-7" fill="#e6007e"></path>
                <path d="M23.4443649,66 L10.2452902,66 C8.42365136,66 6.94436495,64.51956 6.94436495,62.6913267 L6.94436495,49.4612709 L3.64459627,49.4612709 C1.824114,49.4612709 0.344827586,47.9808309 0.344827586,46.153757 L0.344827586,39.5387291 C0.344827586,30.420749 7.74819924,23 16.8448276,23 C25.9414559,23 33.3448276,30.420749 33.3448276,39.5387291 L33.3448276,46.153757 C33.3448276,47.9808309 31.8666978,49.4612709 30.0439023,49.4612709 L26.7452902,49.4612709 L26.7452902,62.6913267 C26.7452902,64.51956 25.2671604,66 23.4443649,66 L23.4443649,66 Z M13.5450589,59.3849721 L20.1445963,59.3849721 L20.1445963,46.153757 C20.1445963,44.3290016 21.6227261,42.846243 23.4443649,42.846243 L26.7452902,42.846243 L26.7452902,39.5387291 C26.7452902,34.0667817 22.3051178,29.6161872 16.8448276,29.6161872 C11.385694,29.6161872 6.94436495,34.0667817 6.94436495,39.5387291 L6.94436495,42.846243 L10.2452902,42.846243 C12.0669291,42.846243 13.5450589,44.3290016 13.5450589,46.153757 L13.5450589,59.3849721 Z" id="Fill-9" fill="#e6007e"></path>
            </g>
        </g>
    </g>
</svg>