<?xml version="1.0" encoding="UTF-8"?>
<svg width="599px" height="177px" viewBox="0 0 599 177" version="1.1" xmlns="http://www.w3.org/2000/svg" xmlns:xlink="http://www.w3.org/1999/xlink">
    <title>logo</title>
    <defs>
        <polygon id="path-1" points="0.663545455 0.928772727 74.3735455 0.928772727 74.3735455 120 0.663545455 120"></polygon>
        <polygon id="path-3" points="0.988833803 0.380965517 96.9164789 0.380965517 96.9164789 119.180966 0.988833803 119.180966"></polygon>
    </defs>
    <g id="🛠-symbols" stroke="none" stroke-width="1" fill="none" fill-rule="evenodd">
        <g id="0-logos-/-logo-lazare" transform="translate(0.000000, -3.000000)">
            <g id="logo" transform="translate(0.000000, 3.000000)">
                <path d="M39.7436272,166.1458 C46.8215042,166.1458 53.2201911,165.554539 58.9355631,164.363708 C64.6523099,163.177032 70.3223109,160.482431 75.9496907,156.275753 C79.0335442,153.9024 81.5316994,151.614897 83.4359068,149.421553 C85.3414891,147.228209 86.9280994,145.266108 88.1998625,143.526941 C89.4675009,141.791929 90.5151587,140.421089 91.330462,139.414422 C92.1471401,138.411908 93.1013061,137.906498 94.1902103,137.906498 C96.7282369,137.906498 98,140.009837 98,144.212361 C98,155.179081 95.8221917,162.7187 91.466575,166.83122 C87.1109583,170.94374 80.4854165,173 71.594074,173 C71.0509968,173 70.0968308,172.952921 68.7370754,172.862916 C67.3759452,172.768757 65.6944682,172.725832 63.7008937,172.725832 L48.1840093,172.177496 L29.9434897,171.62916 L19.600275,171.62916 C12.6997573,171.62916 7.71032141,164.77496 4.62646782,151.066561 C1.5384896,137.358162 0,116.247227 0,87.7337559 C0,73.4770206 0.496331318,60.8652932 1.49724323,49.8985737 C2.49128074,38.9318542 3.8097897,29.7472266 5.44452083,22.344691 C7.0765022,14.9421553 8.84597146,9.36879092 10.7515538,5.62044374 C12.6585109,1.87625062 14.5159724,0 16.3335625,0 C19.9604933,0 23.5475526,7.08544238 27.0851162,21.248019 C30.6240548,35.4147497 32.393524,56.1144328 32.393524,83.3470681 C32.393524,95.2304503 31.985185,108.022187 31.1698817,121.730586 C30.3518287,135.438986 29.0333198,149.147385 27.2226041,162.855784 L26.9490032,165.323296 C31.3046199,165.871632 35.5667448,166.1458 39.7436272,166.1458" id="Fill-1" fill="#E6007E"></path>
                <path d="M147.932515,117.684248 C143.882041,120.518098 140.429727,123.437739 137.57836,126.451472 C134.722811,129.466589 132.563023,132.754298 131.092025,136.314599 C129.615449,139.876284 128.883436,144.217001 128.883436,149.328448 C128.883436,155.177415 130.168991,159.740911 132.747072,163.02862 C135.323759,166.316329 138.725878,167.9588 142.96319,167.9588 C147.380368,167.9588 150.831288,167.001268 153.314557,165.082054 C155.800613,163.164224 157.638316,160.42585 158.836029,156.862781 C160.032348,153.301097 160.811768,148.964531 161.184049,143.848933 C161.550753,138.737486 161.734802,132.985379 161.734802,126.589844 L161.734802,107.959492 C156.580033,111.613886 151.977412,114.854548 147.932515,117.684248 M150.969325,171.794461 C145.075572,174.714101 138.268544,176.178073 130.538483,176.178073 C121.153374,176.178073 113.879253,173.803616 108.730061,169.054703 C103.575293,164.307173 101,157.641814 101,149.054472 C101,140.107365 104.03681,133.257971 110.110429,128.50629 C112.500279,126.498518 115.170385,124.807617 118.11517,123.437739 C121.058561,122.06786 124.142777,120.745027 127.365031,119.46509 C130.583101,118.189304 133.80396,116.957797 137.027607,115.766417 C140.244283,114.580573 143.515337,113.259124 146.828221,111.793769 C152.900446,108.874128 157.180982,105.355338 159.665644,101.245702 C162.148912,97.1360654 163.392638,91.613655 163.392638,84.671552 C163.392638,69.5129435 158.145845,61.93018 147.656442,61.93018 C143.420524,61.93018 139.92638,63.0731294 137.16425,65.3562607 C134.404908,67.6407758 132.010876,71.2453559 129.98773,76.1769196 C128.697992,79.2847457 127.684328,82.0245033 126.949526,84.3961925 C126.21333,86.7720328 125.523146,88.8752811 124.880368,90.697635 C124.233408,92.5255238 123.5,93.8967863 122.671779,94.8072714 C121.843558,95.7232914 120.781093,96.1771502 119.495538,96.1771502 C117.46821,96.1771502 115.537089,94.7173299 113.697992,91.793538 C111.857501,88.8752811 110.93865,85.0382367 110.93865,80.2879398 C110.93865,73.7125215 114.388176,68.1887273 121.291411,63.7110225 C128.193252,59.2388524 137.717791,57 149.865031,57 C157.960402,57 164.634969,58.2785536 169.878974,60.834277 C175.125767,63.3955352 179.310095,67.4096952 182.441718,72.8892105 C185.567764,78.3687257 187.776352,85.3122124 189.067485,93.7113684 C190.35304,102.114675 191,112.067744 191,123.574726 C191,141.110559 189.710262,154.397 187.133575,163.4382 C184.555494,172.480784 181.889571,177 179.128834,177 C175.44367,177 171.489403,171.066626 167.256274,159.191575 L166.981595,157.821697 C162.19353,164.217232 156.856107,168.87482 150.969325,171.794461" id="Fill-3" fill="#E6007E"></path>
                <path d="M228.275,166.647619 C237.769476,166.647619 246.146875,166.28076 253.404482,165.542857 C260.659375,164.809139 267.063226,163.151996 272.620107,160.571429 C275.845107,159.099808 278.53125,157.490091 280.68125,155.738095 C282.83125,153.990284 284.667708,152.42381 286.191982,151.041462 C287.710827,149.661905 288.967708,148.513901 289.953125,147.590476 C290.935827,146.671236 291.970107,146.209524 293.045107,146.209524 C295.013226,146.209524 296,147.96152 296,151.457143 C296,165.819048 287.756976,173 271.276357,173 L268.051357,173 C266.613952,173 264.644476,172.905147 262.1375,172.72381 L246.282607,171.895238 C244.132607,171.713901 242.338226,171.617653 240.907607,171.617653 L237.4125,171.617653 C234.725,171.617653 231.945202,171.713901 229.082607,171.895238 C226.213226,172.08076 223.258333,172.171429 220.213857,172.171429 L215.913857,172.171429 C211.969476,172.171429 210,170.512891 210,167.2 C210,157.995046 215.955934,144.966667 227.871875,128.119048 C239.785101,111.271429 256.402809,90.2377104 277.726357,65.0095238 L279.876357,62.5238095 L268.85625,62.5238095 C260.970202,62.5238095 254.298958,62.8474266 248.834375,63.4904762 C243.367077,64.1377104 238.577083,65.8367003 234.457607,68.6 C232.127083,70.2571429 230.290625,72.0998076 228.946875,74.1238095 C227.604482,76.1519962 226.483333,78.0379028 225.588857,79.7857143 C224.688952,81.5377104 223.794476,83.0567581 222.9,84.3428571 C222.001452,85.6331409 220.926452,86.2761905 219.675,86.2761905 C218.063857,86.2761905 216.672601,84.9426647 215.510732,82.2714286 C214.342077,79.6043771 213.763857,75.6902838 213.763857,70.5333333 C213.763857,65.7474266 214.838857,62.2950457 216.988857,60.1761905 C219.138857,58.06152 222.809059,57 228.007607,57 C231.050726,57 234.1875,57.0948533 237.4125,57.2761905 C240.6375,57.4617124 244.132607,57.552381 247.89375,57.552381 L259.9875,57.552381 C262.676357,57.552381 266.210827,57.4617124 270.604482,57.2761905 C274.991351,57.0948533 280.321559,57 286.595107,57 C289.638226,57 291.701357,57.5998076 292.776357,58.7952381 C293.851357,59.9948533 294.3875,62.3424723 294.3875,65.8367003 C294.3875,75.7809524 288.967708,88.9 278.128125,105.195238 C267.285827,121.490476 250.669476,141.147427 228.275,164.161905 L225.857607,166.647619 L228.275,166.647619 Z" id="Fill-5" fill="#E6007E"></path>
                <path d="M353.932515,117.684248 C349.882041,120.518098 346.429727,123.437739 343.57836,126.451472 C340.722811,129.466589 338.563023,132.754298 337.092025,136.314599 C335.615449,139.876284 334.883436,144.217001 334.883436,149.328448 C334.883436,155.177415 336.168991,159.740911 338.747072,163.02862 C341.323759,166.316329 344.725878,167.9588 348.96319,167.9588 C353.380368,167.9588 356.831288,167.001268 359.314557,165.082054 C361.800613,163.164224 363.638316,160.42585 364.836029,156.862781 C366.032348,153.301097 366.811768,148.964531 367.184049,143.848933 C367.550753,138.737486 367.734802,132.985379 367.734802,126.589844 L367.734802,107.959492 C362.580033,111.613886 357.977412,114.854548 353.932515,117.684248 M356.969325,171.794461 C351.075572,174.714101 344.268544,176.178073 336.538483,176.178073 C327.153374,176.178073 319.879253,173.803616 314.730061,169.054703 C309.575293,164.307173 307,157.641814 307,149.054472 C307,140.107365 310.03681,133.257971 316.110429,128.50629 C318.500279,126.498518 321.170385,124.807617 324.11517,123.437739 C327.058561,122.06786 330.142777,120.745027 333.365031,119.46509 C336.583101,118.189304 339.80396,116.957797 343.027607,115.766417 C346.244283,114.580573 349.515337,113.259124 352.828221,111.793769 C358.900446,108.874128 363.180982,105.355338 365.665644,101.245702 C368.148912,97.1360654 369.392638,91.613655 369.392638,84.671552 C369.392638,69.5129435 364.145845,61.93018 353.656442,61.93018 C349.420524,61.93018 345.92638,63.0731294 343.16425,65.3562607 C340.404908,67.6407758 338.010876,71.2453559 335.98773,76.1769196 C334.697992,79.2847457 333.684328,82.0245033 332.949526,84.3961925 C332.21333,86.7720328 331.523146,88.8752811 330.880368,90.697635 C330.233408,92.5255238 329.5,93.8967863 328.671779,94.8072714 C327.843558,95.7232914 326.781093,96.1771502 325.495538,96.1771502 C323.46821,96.1771502 321.537089,94.7173299 319.697992,91.793538 C317.857501,88.8752811 316.93865,85.0382367 316.93865,80.2879398 C316.93865,73.7125215 320.388176,68.1887273 327.291411,63.7110225 C334.193252,59.2388524 343.717791,57 355.865031,57 C363.960402,57 370.634969,58.2785536 375.878974,60.834277 C381.125767,63.3955352 385.310095,67.4096952 388.441718,72.8892105 C391.567764,78.3687257 393.776352,85.3122124 395.067485,93.7113684 C396.35304,102.114675 397,112.067744 397,123.574726 C397,141.110559 395.710262,154.397 393.133575,163.4382 C390.555494,172.480784 387.889571,177 385.128834,177 C381.44367,177 377.489403,171.066626 373.256274,159.191575 L372.981595,157.821697 C368.19353,164.217232 362.856107,168.87482 356.969325,171.794461" id="Fill-7" fill="#E6007E"></path>
                <g id="Group-11" transform="translate(424.000000, 53.000000)">
                    <mask id="mask-2" fill="white">
                        <use xlink:href="#path-1"></use>
                    </mask>
                    <g id="Clip-10"></g>
                    <path d="M23.934,19.0201364 C34.7012727,7.50286364 45.6608182,1.74013636 56.8235455,1.74013636 C62.4008182,1.74013636 66.7208182,3.08877273 69.7835455,5.79013636 C72.8421818,8.48877273 74.3735455,12.1801364 74.3735455,16.8601364 C74.3735455,22.0828636 73.4708182,26.2665 71.6735455,29.4151364 C69.8721818,32.5665 67.9821818,34.1401364 66.0035455,34.1401364 C64.2021818,34.1401364 62.7635455,33.0178636 61.6835455,30.7637727 C60.6035455,28.5165 58.8908182,25.5001364 56.5535455,21.7187727 C52.5921818,15.6028636 48.0008182,12.5401364 42.7835455,12.5401364 C33.7808182,12.5401364 29.2835455,20.9101364 29.2835455,37.6501364 L29.2835455,56.5487727 C29.2835455,66.8101364 28.7899091,75.8551364 27.8108182,83.6851364 C26.8317273,91.5151364 25.6249091,98.1301364 24.1999091,103.530136 C22.7735455,108.930136 21.2135455,113.0265 19.5212727,115.813773 C17.8262727,118.602409 16.2649091,120.000136 14.8385455,120.000136 C13.4121818,120.000136 11.8944545,118.692409 10.2908182,116.085136 C8.68718182,113.477864 7.16809091,109.605136 5.74309091,104.475136 C4.31672727,99.3437727 3.10990909,93.0465 2.13218182,85.5751364 C1.15309091,78.1078636 0.663545455,69.6028636 0.663545455,60.0601364 C0.663545455,40.6201364 1.77763636,25.9051364 4.00445455,15.9151364 C6.23263636,5.92377273 8.95309091,0.928772727 12.1630909,0.928772727 C15.7276364,0.928772727 19.6521818,6.96286364 23.934,19.0201364" id="Fill-9" fill="#E6007E" mask="url(#mask-2)"></path>
                </g>
                <g id="Group-14" transform="translate(502.000000, 57.000000)">
                    <mask id="mask-4" fill="white">
                        <use xlink:href="#path-3"></use>
                    </mask>
                    <g id="Clip-13"></g>
                    <path d="M71.7738197,49.8126897 L71.7738197,46.2623448 C71.7738197,32.6057931 70.1340451,22.3657931 66.8544958,15.5368276 C63.5749465,8.71062069 58.927538,5.29682759 52.915031,5.29682759 C39.2502423,5.29682759 31.5979606,20.5009655 29.9595662,50.9051034 L71.7738197,49.8126897 Z M92.8162141,94.3271724 C89.1708901,103.066483 84.0707493,109.396138 77.5116507,113.309241 C70.9525521,117.222345 62.4817634,119.180966 52.0951437,119.180966 C35.6973972,119.180966 23.078862,114.265103 14.2436789,104.433379 C5.40573521,94.6016552 0.988833803,80.3092414 0.988833803,61.5561379 C0.988833803,52.2706207 2.26145352,43.8513103 4.81497465,36.294069 C7.36435493,28.7409655 10.9641296,22.3230345 15.6101577,17.0402759 C20.2561859,11.7616552 25.8587493,7.66372414 32.4178479,4.75062069 C38.9769465,1.84027586 46.1723549,0.380965517 54.0095944,0.380965517 C67.3072282,0.380965517 77.7849465,4.57131034 85.4372282,12.9437241 C93.0895099,21.3202759 96.917031,32.974069 96.917031,47.8995862 L96.917031,50.3588966 C96.917031,51.6333793 96.8217915,53.4568276 96.6437352,55.8195862 L29.9595662,55.8195862 L29.9595662,60.4637241 C29.9595662,78.672 32.2342704,92.1009655 36.7905803,100.746483 C41.3427493,109.396138 48.8155944,113.718897 59.2022141,113.718897 C71.9532563,113.718897 81.6124676,106.712 88.1715662,92.689931 L88.4434817,91.8706207 L92.8162141,94.3271724 Z" id="Fill-12" fill="#E6007E" mask="url(#mask-4)"></path>
                </g>
            </g>
        </g>
    </g>
</svg>