<?xml version="1.0" encoding="UTF-8"?>
<svg width="89px" height="68px" viewBox="0 0 89 68" version="1.1" xmlns="http://www.w3.org/2000/svg" xmlns:xlink="http://www.w3.org/1999/xlink">
    <title>maison</title>
    <g id="🛠-symbols" stroke="none" stroke-width="1" fill="none" fill-rule="evenodd">
        <g id="maison" fill="#E6007E" transform="translate(0.000000, 0.534050)">
            <path d="M13.9536072,33.499223 L42.6860173,8.62927056 L74.2910405,33.499223 L13.9536072,33.499223 Z M69.6509069,59.5564189 L38.6957536,59.5564189 L38.6957536,44.6661487 L27.0875711,44.6661487 L27.0875711,59.5564189 L19.3487828,59.5564189 L19.3487828,40.9443581 L46.4329722,40.9443581 L46.4329722,51.9108199 L61.9136883,51.9108199 L61.9136883,40.9443581 L69.6509069,40.9443581 L69.6509069,59.5564189 Z M65.7815128,14.8887162 L69.6509069,14.8887162 L69.6509069,20.2328656 L65.7815128,17.1870579 L65.7815128,14.8887162 Z M87.580408,34.34459 L77.3896953,26.3213731 L77.3896953,11.1669257 C77.3896953,9.11411342 75.6582787,7.44358112 73.5203011,7.44358112 L61.9136883,7.44358112 C59.7992567,7.44358112 58.0913862,9.08303375 58.056852,11.1063203 L45.0155024,0.843813058 C44.3012735,0.279717036 43.4316409,0 42.5651478,0 C41.637435,0 40.711292,0.320120608 39.9766565,0.957253856 L1.28271483,34.4549229 C0.0912867685,35.4867679 -0.316844056,37.1184507 0.256108832,38.5558854 C0.832201189,39.9948742 2.26850775,40.9443581 3.86963637,40.9443581 L11.6084247,40.9443581 L11.6084247,63.2766555 C11.6084247,65.3341297 13.341411,67 15.4793886,67 L73.5203011,67 C75.6582787,67 77.3896953,65.3341297 77.3896953,63.2766555 L77.3896953,40.9443581 L85.1300533,40.9443581 C86.7657161,40.9443581 88.2239989,39.9544706 88.7749755,38.4719703 C89.3243824,36.992578 88.8456136,35.3375855 87.580408,34.34459 L87.580408,34.34459 Z" id="Fill-1"></path>
        </g>
    </g>
</svg>