<?xml version="1.0" encoding="UTF-8"?>
<svg width="44px" height="68px" viewBox="0 0 44 68" version="1.1" xmlns="http://www.w3.org/2000/svg" xmlns:xlink="http://www.w3.org/1999/xlink">
    <title>no-alcool</title>
    <g id="🛠-symbols" stroke="none" stroke-width="1" fill="none" fill-rule="evenodd">
        <g id="00-icono-picto-/-no-alcool" transform="translate(-32.000000, -1.000000)" fill="#e6007e" fill-rule="nonzero">
            <g id="no-alcool" transform="translate(32.000000, 1.000000)">
                <path d="M15.8571429,0 C18.2655724,0 20.1738928,1.90082503 20.2809736,4.26630256 L20.2857143,4.47619048 L20.2857143,17.4666667 C20.2857143,19.7498156 20.9873422,21.9376181 22.2896833,23.7435 L22.512285,24.0408949 C24.6912965,26.8467912 25.9044898,30.282911 25.994589,33.8647491 L26,34.2952381 L26,37.4542857 L20,37.4542857 L20,34.2952381 C20,32.0120891 19.2983721,29.8242866 17.996031,28.0184047 L17.7734293,27.7210099 C15.5944178,24.9151136 14.3812244,21.4789938 14.2911253,17.8971557 L14.2857143,17.4666667 L14.285,6 L11.714,6 L11.7142857,17.4666667 C11.7142857,21.059387 10.5849005,24.5257693 8.48340611,27.3813082 L8.22657073,27.7210099 C6.85779516,29.4835716 6.08412644,31.6439748 6.00647925,33.9156452 L6,34.2952381 L6,62 L21.5714286,62 C21.1041847,62 20.6650708,62.2102432 20.3767419,62.5349823 L20.2863852,62.6473379 L25.1421862,66.1717097 C24.3661251,67.2409495 23.1640905,67.9213039 21.8116077,67.9935987 L21.5714286,68 L4.42857143,68 C2.02014189,68 0.111821519,66.099175 0.00474070566,63.7336974 L0,63.5238095 L0,34.2952381 C0,30.7025177 1.12938524,27.2361355 3.2308796,24.3805965 L3.48771498,24.0408949 C4.85649055,22.2783331 5.63015927,20.1179299 5.70780646,17.8462595 L5.71428571,17.4666667 L5.71428571,4.47619048 C5.71428571,2.08462281 7.55379381,0.11546727 9.93167962,0.00489639682 L10.1428571,0 L15.8571429,0 Z" id="Stroke-1"></path>
                <polygon id="Stroke-3" points="17 11.5 17 17.5 9 17.5 9 11.5"></polygon>
                <path d="M4.55060844,49.5818074 C6.83042132,50.9582995 9.79908386,51.7736227 13.027535,51.844899 L13.6224956,51.8491367 L13.554583,51.8562503 L14.445417,57.7897497 C14.3142494,57.8094427 14.1869859,57.8235326 14.0596123,57.833076 L13.7809467,57.8471744 L13.4904632,57.85 C9.19097822,57.85 5.12573179,56.8253504 1.83991359,54.9476059 L1.44939156,54.7181926 L4.55060844,49.5818074 Z" id="Stroke-5"></path>
                <path d="M13,31.15 C17.1404499,31.15 21.0594629,32.1871216 24.2267745,34.0827289 L24.6032098,34.3143111 L21.3967902,39.3856889 C19.1490194,37.9645177 16.1962363,37.15 13,37.15 C9.94904719,37.15 7.11991842,37.8921535 4.91405055,39.1956726 L4.60320978,39.3856889 L1.39679022,34.3143111 C4.62737033,32.2717507 8.69393213,31.15 13,31.15 Z" id="Stroke-7"></path>
                <path d="M27,34 C17.6101712,34 10,41.611278 10,51 C10,60.388722 17.6101712,68 27,68 C36.3878016,68 44,60.3878016 44,51 C44,41.6121984 36.3878016,34 27,34 Z M27,40 C33.0740931,40 38,44.9259069 38,51 C38,57.0740931 33.0740931,62 27,62 C20.9240751,62 16,57.0752088 16,51 C16,44.9247912 20.9240751,40 27,40 Z" id="Stroke-9"></path>
                <polygon id="Stroke-11" points="33.8786797 38.8786797 38.1213203 43.1213203 19.1213203 62.1213203 14.8786797 57.8786797"></polygon>
            </g>
        </g>
    </g>
</svg>