<?xml version="1.0" encoding="UTF-8"?>
<svg width="93px" height="59px" viewBox="0 0 93 59" version="1.1" xmlns="http://www.w3.org/2000/svg" xmlns:xlink="http://www.w3.org/1999/xlink">
    <title>Group 21</title>
    <g id="🛠-symbols" stroke="none" stroke-width="1" fill="none" fill-rule="evenodd">
        <g id="00-icono-picto-/-coloc-sofa" transform="translate(0.000000, -8.000000)" fill="#E6007E" fill-rule="nonzero">
            <g id="Group-21" transform="translate(0.000000, 8.000000)">
                <path d="M14.4777479,15.535374 L6.69872269,15.535374 C3.0673252,15.535374 0,18.2892589 0,21.8561358 L0,55.5192401 C0,57.1760943 1.34314575,58.5192401 3,58.5192401 L18.1764706,58.5192401 C19.8333248,58.5192401 21.1764706,57.1760943 21.1764706,55.5192401 L21.1764706,21.8561358 C21.1764706,18.2892589 18.1091454,15.535374 14.4777479,15.535374 Z M14.4777479,21.535374 L14.6074497,21.5416454 C14.9776306,21.578253 15.1764706,21.7658071 15.1764706,21.8561358 L15.176,52.519 L6,52.519 L6,21.8561358 C6,21.7557705 6.24548153,21.535374 6.69872269,21.535374 L14.4777479,21.535374 Z" id="Stroke-2"></path>
                <path d="M73.8336188,0 C78.3938185,0 82.2318946,3.34983999 82.3724817,7.69934201 L82.3764706,7.94659209 L82.3764706,16.4837012 C82.3764706,18.1405554 81.0333248,19.4837012 79.3764706,19.4837012 C77.7787897,19.4837012 76.4728097,18.2347812 76.3815633,16.659974 L76.3764706,16.4837012 L76.3764706,7.94659209 C76.3764706,6.99432048 75.3958171,6.07948054 74.0158335,6.00489713 L73.8336188,6 L52.5428518,6 C51.1292428,6 50.0896889,6.87516196 50.0055136,7.82266101 L50,7.94659209 L50,26.1149163 C50,27.7717705 48.6568542,29.1149163 47,29.1149163 C45.4023191,29.1149163 44.0963391,27.8659963 44.0050927,26.2911891 L44,26.1149163 L44,7.94659209 C44,3.56020363 47.753628,0.129134225 52.2855185,0.00356182876 L52.5428518,0 L73.8336188,0 Z" id="Stroke-4"></path>
                <path d="M40.8336188,0 C45.4131773,0 49.2326116,3.44568888 49.3725016,7.86295997 L49.3764706,8.1140152 L49.3764706,28.8887063 C49.3764706,30.5455605 48.0333248,31.8887063 46.3764706,31.8887063 C44.7787897,31.8887063 43.4728097,30.6397863 43.3815633,29.064979 L43.3764706,28.8887063 L43.3764706,8.1140152 C43.3764706,7.049645 42.3777024,6.08380025 41.0135692,6.00516105 L40.8336188,6 L19.5428518,6 C18.148145,6 17.0912641,6.92149599 17.005612,7.97580788 L17,8.1140152 L17,16.9400726 C17,18.5969268 15.6568542,19.9400726 14,19.9400726 C12.4023191,19.9400726 11.0963391,18.6911526 11.0050927,17.1163454 L11,16.9400726 L11,8.1140152 C11,3.66096142 14.7346277,0.13280858 19.2844629,0.00366336254 L19.5428518,0 L40.8336188,0 Z" id="Stroke-6"></path>
                <path d="M85.4777479,15.535374 L77.6987227,15.535374 C74.0673252,15.535374 71,18.2892589 71,21.8561358 L71,55.5192401 C71,57.1760943 72.3431458,58.5192401 74,58.5192401 L89.1764706,58.5192401 C90.8333248,58.5192401 92.1764706,57.1760943 92.1764706,55.5192401 L92.1764706,21.8561358 C92.1764706,18.2892589 89.1091454,15.535374 85.4777479,15.535374 Z M85.4777479,21.535374 L85.6074497,21.5416454 C85.9776306,21.578253 86.1764706,21.7658071 86.1764706,21.8561358 L86.176,52.519 L77,52.519 L77,21.8561358 C77,21.7557705 77.2454815,21.535374 77.6987227,21.535374 L85.4777479,21.535374 Z" id="Stroke-8"></path>
                <path d="M72.8117647,25.4264079 C74.468619,25.4264079 75.8117647,26.7695537 75.8117647,28.4264079 C75.8117647,30.0240888 74.5628447,31.3300688 72.9880375,31.4213152 L72.8117647,31.4264079 L18.1764706,31.4264079 C16.5196163,31.4264079 15.1764706,30.0832622 15.1764706,28.4264079 C15.1764706,26.828727 16.4253906,25.522747 18.0001978,25.4315006 L18.1764706,25.4264079 L72.8117647,25.4264079 Z" id="Stroke-10"></path>
                <path d="M72.6352941,51.648399 C74.2921484,51.648399 75.6352941,52.9915448 75.6352941,54.648399 C75.6352941,56.2460799 74.3863742,57.5520599 72.8115669,57.6433063 L72.6352941,57.648399 L18,57.648399 C16.3431458,57.648399 15,56.3052533 15,54.648399 C15,53.0507181 16.24892,51.7447381 17.8237272,51.6534917 L18,51.648399 L72.6352941,51.648399 Z" id="Stroke-12"></path>
                <path d="M72.8117647,35.5969711 C74.468619,35.5969711 75.8117647,36.9401169 75.8117647,38.5969711 C75.8117647,40.194652 74.5628447,41.500632 72.9880375,41.5918784 L72.8117647,41.5969711 L18.1764706,41.5969711 C16.5196163,41.5969711 15.1764706,40.2538253 15.1764706,38.5969711 C15.1764706,36.9992902 16.4253906,35.6933102 18.0001978,35.6020638 L18.1764706,35.5969711 L72.8117647,35.5969711 Z" id="Stroke-14"></path>
                <path d="M34.3647059,14.3312481 C36.0215601,14.3312481 37.3647059,15.6743939 37.3647059,17.3312481 C37.3647059,18.928929 36.1157859,20.234909 34.5409787,20.3261554 L34.3647059,20.3312481 L30.3176471,20.3312481 C28.6607928,20.3312481 27.3176471,18.9881024 27.3176471,17.3312481 C27.3176471,15.7335672 28.566567,14.4275872 30.1413743,14.3363408 L30.3176471,14.3312481 L34.3647059,14.3312481 Z" id="Stroke-16"></path>
                <path d="M63.7058824,14.3312481 C65.3627366,14.3312481 66.7058824,15.6743939 66.7058824,17.3312481 C66.7058824,18.928929 65.4569624,20.234909 63.8821551,20.3261554 L63.7058824,20.3312481 L59.6588235,20.3312481 C58.0019693,20.3312481 56.6588235,18.9881024 56.6588235,17.3312481 C56.6588235,15.7335672 57.9077435,14.4275872 59.4825507,14.3363408 L59.6588235,14.3312481 L63.7058824,14.3312481 Z" id="Stroke-18"></path>
            </g>
        </g>
    </g>
</svg>