<?xml version="1.0" encoding="UTF-8"?>
<svg width="78px" height="68px" viewBox="0 0 78 68" version="1.1" xmlns="http://www.w3.org/2000/svg" xmlns:xlink="http://www.w3.org/1999/xlink">
    <title>cochon 2</title>
    <g id="🛠-symbols" stroke="none" stroke-width="1" fill="none" fill-rule="evenodd">
        <g id="00-icono-picto-/-euros-argent" transform="translate(-6.000000, -1.000000)" fill="#E6007E" fill-rule="nonzero">
            <g id="cochon-2" transform="translate(5.999400, 1.001000)">
                <path d="M17.0593232,10.6576005 C17.4820243,10.6576005 17.899954,10.7469277 18.2857213,10.9197276 C21.2532482,12.2489965 23.7745192,13.9752057 25.8272563,16.0942973 L26.2066484,16.4962301 L26.3366,16.64 L26.9895035,16.442308 L27.3395299,16.3415217 L27.6913976,16.2440796 L28.4006223,16.0592249 C29.9985519,15.6598482 31.6070892,16.6228728 32.0260279,18.1936125 L32.0663075,18.3641971 C32.1694022,18.8644759 32.3203103,19.33887 32.4953055,19.7433494 L32.6205218,20.0103123 L32.6406,20.048 L33.0745243,19.9713549 L33.4834406,19.9033109 L34.2988849,19.7808148 C37.8163333,19.2879271 41.320195,19.2752902 44.800125,19.7442443 C45.1624935,19.7926349 45.5244418,19.8463156 45.8856034,19.9052014 L46.4366,19.999 L46.4452502,19.9841484 C46.5805404,19.7125111 46.6967649,19.4344499 46.7945189,19.147961 L46.8861382,18.8585887 L46.9655761,18.5631527 C47.3734438,16.9036127 49.0831527,15.9195095 50.7230304,16.4003737 C54.5208379,17.5140113 57.9979505,19.2054478 61.1431171,21.472021 C65.4383411,24.567715 68.3587171,28.1938308 69.815649,32.3158094 L69.9666,32.762 L70.2577341,32.6875424 C70.6162507,32.5888877 70.9619846,32.4739743 71.2952779,32.3429522 L71.6244371,32.2065662 L71.9453787,32.0594743 C73.4202339,31.3499528 75.1789898,31.9554882 75.9149663,33.392896 L75.9924661,33.5560068 L77.7471246,37.5490641 C78.4014997,39.0382185 77.7499348,40.7775815 76.2782284,41.4703064 C74.7255038,42.2011662 73.0612784,42.7269579 71.2908175,43.05016 L70.6967364,43.1503942 L70.3426,43.2 L70.3007506,43.377491 C69.5830016,46.2445141 68.1891639,48.9016235 66.141485,51.3237155 L65.794155,51.7252171 L65.4694897,52.0847087 C64.3690429,53.2744673 63.1056932,54.4019562 61.6833753,55.4678038 L61.4416,55.644 L60.9092763,65.1667111 C60.8268857,66.6382007 59.6937005,67.8129408 58.2627321,67.9789023 L58.0896347,67.99393 L57.9139678,67.999 L50.8510819,67.999 C49.7345439,67.999 48.7163306,67.3796942 48.1993579,66.4020454 L48.1134126,66.2258524 L46.2066,61.971 L45.7774465,62.0420095 C44.0716246,62.3066079 42.3111834,62.4682117 40.4965331,62.5274331 L39.7155081,62.5465472 L38.9278524,62.5531354 C36.8546739,62.5531354 34.8487822,62.424909 32.9110192,62.1676036 L32.084723,62.0494245 L31.6486,61.978 L29.7414377,66.2277574 C29.3112961,67.1858128 28.4169283,67.8401589 27.3937132,67.9737413 L27.2004323,67.9926323 L27.0046229,67.999 L19.9531352,67.999 C18.4205176,67.999 17.1447588,66.8464817 16.9727471,65.3421488 L16.9578461,65.1670562 L16.4246,55.668 L16.1195385,55.4434466 C15.3700317,54.8787201 14.6646723,54.2970828 14.0018221,53.6963031 L13.5126293,53.2420942 L13.0392239,52.7804976 C12.7442507,52.4827168 12.4586934,52.1809005 12.1833484,51.8758278 L11.8616,51.51 L11.5928137,51.2378215 C9.24198286,48.892482 7.0076127,47.5480035 4.89836661,47.1140981 L4.62395785,47.0626583 L4.35097254,47.0215017 C3.10429108,46.8565288 2.09993615,45.9337157 1.82104589,44.7208464 L1.78471373,44.5367991 L0.0407830161,33.9891383 C-0.246875373,32.2493197 1.02092088,30.6378475 2.77956676,30.5079213 L3.52439323,30.4474707 C3.76627631,30.4260183 4.00174027,30.4032993 4.23070492,30.3794202 L4.89802078,30.3044093 L5.52585975,30.2230776 L6.11374078,30.1360645 L6.66118282,30.0440095 L7.16770482,29.9475522 L7.63282572,29.8473321 C7.70686905,29.8303507 7.77916729,29.8132391 7.84971042,29.7960108 L8.2518277,29.6913454 C8.69620588,29.5678491 9.05360144,29.4399344 9.32057685,29.3121712 L9.46459996,29.237 L9.61833583,28.9690403 C10.7453148,27.0521777 12.2245851,25.2669626 14.0458772,23.6122581 L14.4722421,23.2327195 L14.5806,23.139 L14.0527328,13.8273755 C13.9619191,12.2252285 15.1424665,10.8587488 16.6967431,10.6778891 L16.8709329,10.6627209 L17.0593232,10.6576005 Z M20.3666,19.196 L20.6572812,24.3229864 C20.7131518,25.3086629 20.2804914,26.258731 19.5002649,26.8636493 C17.1871673,28.6570197 15.5133276,30.5807011 14.4459963,32.6322686 C14.2853841,32.9409889 14.0722822,33.2194101 13.8162241,33.4550766 C12.4229395,34.7374048 10.2375694,35.5524666 7.14556224,36.0514318 L6.71829448,36.1175274 L6.47859996,36.151 L7.37259996,41.558 L7.42579352,41.5736267 C10.1928828,42.4203827 12.8755608,44.1281429 15.4797854,46.6458571 L15.8512845,47.0110349 L16.2056362,47.3706164 L16.3276502,47.5041612 C16.6321806,47.8583486 16.957736,48.2105476 17.2913747,48.5474147 C18.1336204,49.3892528 19.1024785,50.2063243 20.1849079,50.9868568 C20.4459747,51.1727926 20.7117168,51.3542274 20.9809366,51.5303916 C21.7250244,52.0172863 22.2119669,52.8070436 22.3169787,53.683584 L22.3335899,53.8726636 L22.7886,61.998 L25.0626,61.998 L27.1508923,57.348741 C27.6864035,56.1559953 28.9234147,55.4606278 30.1966559,55.5932774 L30.3787221,55.6178958 L30.5608502,55.6539939 C33.1594893,56.2523361 35.9477165,56.5531354 38.9266052,56.5531356 C41.9068457,56.5518966 44.6931284,56.2476152 47.2878641,55.6436331 C48.6251511,55.33235 49.9941217,55.9689112 50.6243746,57.1712417 L50.705667,57.3386668 L52.7936,61.998 L55.0776,61.998 L55.5328232,53.8623606 C55.5776605,53.0615695 55.9405678,52.318019 56.5311111,51.7913061 L56.6834371,51.6642377 L56.8449338,51.5467584 L57.2625681,51.2601583 L57.6385235,50.9941158 C58.968792,50.0383144 60.1097186,49.0431529 61.0609462,48.0147317 C63.2760233,45.610892 64.4991605,43.0019318 64.79659,40.1125435 C64.8563865,39.5316484 65.0796978,39.0025317 65.4187314,38.5700491 L65.5512001,38.4124855 L65.6516,38.305 L65.5562278,38.2138142 C65.2157475,37.8691083 64.9566989,37.4403922 64.8141939,36.9561396 L64.760358,36.7452857 L64.7279769,36.5720409 C64.1267341,32.7439194 61.8219729,29.3572526 57.6350737,26.3396314 C56.100362,25.2336371 54.4703289,24.2942729 52.7415324,23.5202683 L52.0885975,23.2377653 L51.6126,23.044 L51.4914463,23.2714184 C51.0896021,23.9770312 50.6154678,24.6492474 50.0722007,25.2862144 C49.3411618,26.1433392 48.1915589,26.5186706 47.0955872,26.2580424 L46.7469706,26.1792607 C45.8349503,25.9762646 44.9215671,25.8137239 44.002375,25.690973 C41.0631367,25.2948841 38.1089873,25.3055385 35.1292624,25.723076 C34.4376529,25.8194557 33.7406106,25.9392684 33.0396123,26.0819897 L32.3373501,26.2323278 L31.945787,26.3208406 C30.8544691,26.5675328 29.7165523,26.1864291 28.9939389,25.3322267 C28.5716846,24.8330794 28.1896045,24.3097906 27.8483227,23.763652 L27.6000208,23.349784 L27.264643,22.7147193 L27.2406,22.664 L27.0880872,22.7167472 L26.4216672,22.9648294 C25.1511391,23.4564096 23.7088917,23.030197 22.9096629,21.9269626 C22.3324599,21.1302068 21.6779321,20.3902664 20.9439508,19.7067444 L20.5703291,19.369683 L20.3666,19.196 Z M23.0006,28.999 C24.6574542,28.999 26.0006,30.3421458 26.0006,31.999 C26.0006,33.6558542 24.6574542,34.999 23.0006,34.999 C21.3437457,34.999 20.0006,33.6558542 20.0006,31.999 C20.0006,30.3421458 21.3437457,28.999 23.0006,28.999 Z M39.5546,-2.84217094e-14 L39.9002694,0.00362861708 C42.5855153,0.079504905 44.9559042,1.0876087 46.8662156,2.97928421 C48.8751582,4.97795076 49.9164139,7.47712551 49.9173464,10.310899 C49.9164188,11.1699051 49.8167689,12.0031436 49.6204298,12.7918254 C49.5606712,13.0374273 49.4948836,13.274735 49.4209782,13.5083906 C49.0452093,14.696403 47.9774784,15.5220125 46.7464614,15.5979481 L46.5606502,15.6036674 L32.5361217,15.6036674 C31.2359644,15.6036674 30.0837868,14.7661804 29.6825512,13.5294836 C29.5703979,13.1838022 29.4779899,12.8334134 29.4080799,12.4882509 C29.2627642,11.7828832 29.1904002,11.0563406 29.1894726,10.3106368 C29.1868024,7.61434847 30.1238947,5.21602403 31.9555228,3.25243686 L32.1995001,2.99879346 L32.238677,2.96004175 C34.1584703,1.08465605 36.5291447,0.0818320221 39.2061041,0.00392973678 L39.5546,-2.84217094e-14 Z M39.5599239,5.99901108 L39.3103491,6.00410056 C38.2509971,6.04905139 37.3924896,6.39228745 36.6356007,7.0612104 L36.4484382,7.23524213 L36.2671869,7.42703211 C35.7456204,8.00728017 35.4229745,8.63320235 35.2785667,9.35261359 L35.2356,9.603 L43.8676,9.603 C43.7595416,8.85164024 43.4694975,8.20338915 42.9788993,7.60910117 L42.8079131,7.41293639 L42.6394507,7.23773572 C41.8405154,6.44659904 40.9422171,6.0510589 39.8068871,6.00381983 L39.5599239,5.99901108 Z" id="cochon"></path>
            </g>
        </g>
    </g>
</svg>