<?xml version="1.0" encoding="UTF-8"?>
<svg width="76px" height="66px" viewBox="0 0 76 66" version="1.1" xmlns="http://www.w3.org/2000/svg" xmlns:xlink="http://www.w3.org/1999/xlink">
    <title>doggy</title>
    <defs>
        <filter color-interpolation-filters="auto" id="filter-1">
            <feColorMatrix in="SourceGraphic" type="matrix" values="0 0 0 0 1.000000 0 0 0 0 1.000000 0 0 0 0 1.000000 0 0 0 1.000000 0"></feColorMatrix>
        </filter>
    </defs>
    <g id="🛠-symbols" stroke="none" stroke-width="1" fill="none" fill-rule="evenodd">
        <g id="doggy" transform="translate(-7.000000, -2.000000)" filter="url(#filter-1)">
            <g transform="translate(10.000000, 5.000000)">
                <path d="M66.0651693,3 C69.8215932,3 72.8705763,5.99942234 72.9959869,9.7342724 L73,9.97364404 L73,53.8125846 C73,58.8801574 68.9198701,63 63.8730215,63 C59.1960266,63 55.3002508,59.4493973 54.7964785,54.7634806 L54.7716032,54.4970438 L54.0060183,42.4286817 C53.9011227,40.7751513 55.1565393,39.3496653 56.8100697,39.2447697 C58.4045455,39.1436204 59.7869748,40.3073532 59.9777394,41.8732244 L59.9939817,42.0488212 L60.7561819,54.069775 C60.8880399,55.7312586 62.2491736,57 63.8730215,57 C65.53377,57 66.9025989,55.6756727 66.9950261,53.9940785 L67,53.8125846 L67,9.97364404 C67,9.42927981 66.5748275,9 66.0651693,9 C65.6850638,9 65.3422927,9.24008912 65.1928689,9.63040985 L65.1539982,9.75192316 L61.4180357,23.493093 C60.983348,25.0919091 59.3348676,26.0356216 57.7360516,25.6009339 C56.1943361,25.1817709 55.2617667,23.6339663 55.5868786,22.0903841 L55.6282107,21.9189499 L59.3555438,8.21023597 C60.1521695,5.1450515 62.9058935,3 66.0651693,3 Z" id="Stroke-7" fill="#E6007E" fill-rule="nonzero"></path>
                <path d="M53.7147667,40.2775905 C55.3641152,40.1200605 56.8288796,41.3294183 56.9864095,42.9787667 C57.1439395,44.6281152 55.9345817,46.0928796 54.2852333,46.2504095 C50.9157406,46.5722313 47.4495765,46.736 43.9303741,46.736 C40.8256814,46.736 37.755885,46.6077079 34.7492317,46.3555008 C33.098176,46.2170053 31.8720037,44.7662875 32.0104992,43.1152317 C32.1489947,41.464176 33.5997125,40.2380037 35.2507683,40.3764992 C38.0904567,40.6147007 40.9929279,40.736 43.9303741,40.736 C47.2598876,40.736 50.5356903,40.5812254 53.7147667,40.2775905 Z" id="Stroke-9" fill="#E6007E" fill-rule="nonzero"></path>
                <path d="M45.0667056,18.264 L46.1359952,18.2689508 L47.2693783,18.2834023 L48.446852,18.3067533 L49.6484138,18.3384027 L50.8540612,18.3777492 L52.6264367,18.4498861 L53.7547862,18.5058453 C53.9379064,18.5156546 54.1182799,18.5256969 54.2954897,18.5359598 L55.3174527,18.600083 C55.6432304,18.6222727 55.9530201,18.6452442 56.243488,18.6688974 C57.8948761,18.8033721 59.1245773,20.2511 58.9901026,21.902488 C58.8556279,23.5538761 57.4079,24.7835773 55.756512,24.6491026 L55.3328791,24.6162202 L54.4079763,24.5534406 C54.2460353,24.5433348 54.0804778,24.5334165 53.9117215,24.5236985 L52.8641433,24.4678973 L51.7598578,24.4175238 L50.6189259,24.3731983 L49.4614087,24.335541 L47.7379187,24.2929149 L46.6267048,24.274642 C46.4454142,24.2723159 46.2663582,24.270358 46.0899545,24.2687815 L45.0667056,24.264 L44.1641556,24.2668925 L42.7343421,24.2816819 L40.7392655,24.3195766 L39.2207859,24.3605193 L37.7212918,24.4112434 L36.2749745,24.4708926 L34.9160251,24.5386105 L34.0754811,24.5878156 L33.2990941,24.6399725 L32.5969948,24.6948274 C32.4867317,24.7041806 32.379986,24.7136357 32.2769689,24.7231873 C30.6271908,24.876153 29.1657783,23.6627469 29.0128127,22.0129689 C28.859847,20.3631908 30.0732531,18.9017783 31.7230311,18.7488127 L32.4298389,18.6886234 L33.21464,18.6314298 L34.0674096,18.5774658 L34.9781229,18.5269657 L36.4309081,18.4582227 L37.9576771,18.3985907 L39.5245964,18.3488602 L41.0978322,18.3098215 L43.1468278,18.2757676 L44.1279188,18.2669809 L45.0667056,18.264 Z" id="Stroke-11" fill="#E6007E" fill-rule="nonzero"></path>
                <path d="M10.0696383,0.944686171 C15.1445418,-3.86695382 22.9727531,-4.32999099 28.585173,-0.151484991 C32.4300124,2.71067973 34.5751817,7.29024984 34.3162704,12.047594 L34.293025,12.3959873 L33.5919179,21.2414988 C33.461004,22.893173 32.0159309,24.1259928 30.3642567,23.9950789 C28.7715709,23.8688405 27.5683556,22.5206351 27.6018255,20.9435417 L27.6106766,20.7674177 L28.3117301,11.9225832 C28.5346754,9.10168745 27.287895,6.36274898 25.0022478,4.66127377 C21.8052337,2.28106293 17.3671041,2.48382595 14.4069158,5.107094 L14.198024,5.2985846 L7.8646512,11.3044232 C7.65223051,11.5058584 7.41176125,11.6748438 7.15106578,11.8062943 L6.951874,11.8977651 L4.55441534,12.8943309 C3.11942278,13.4913206 2.5663482,15.2010009 3.37478907,16.5017516 C4.06956388,17.6192153 5.25348292,18.3469501 6.5677164,18.4731286 L6.80091966,18.4891078 L8.509,18.558 L8.7215571,18.5615045 C15.4882441,18.7536982 20.9359774,24.1884668 21.0970889,30.9277344 L21.1007574,31.2349494 L21.1007574,53.8070962 C21.1007574,55.5659093 22.5454219,57 24.3393227,57 C25.9720664,57 27.3335927,55.8060729 27.5485936,54.23654 L27.5817185,53.925491 L29.0237283,42.5284565 C29.2317038,40.8847071 30.7328233,39.7207823 32.3765728,39.9287577 C33.9616169,40.1293054 35.1004975,41.5322793 34.9933457,43.1060843 L34.9762717,43.2816021 L33.539,54.64 L33.5231047,54.8079269 C33.023028,59.3713311 29.208867,62.8659855 24.6057448,62.9962346 L24.3393227,63 C19.3309749,63 15.2463426,59.0324867 15.1045637,54.073678 L15.1007574,53.8070962 L15.1007574,31.2349494 C15.1007574,27.6420199 12.2297687,24.7015799 8.62088721,24.56147 L8.27725785,24.5538959 L6.55600869,24.484107 C3.16626591,24.3445854 0.0653351694,22.5423426 -1.72090214,19.6693897 C-4.43963837,15.2950465 -2.65691776,9.56766215 2.00679417,7.46002542 L2.2505816,7.35426329 L4.137,6.569 L10.0696383,0.944686171 Z" id="Stroke-13" fill="#E6007E" fill-rule="nonzero"></path>
                <path d="M29.4690156,5.22844746 C30.9997018,4.59428206 32.7546607,5.32105577 33.3888261,6.85174197 C35.1112889,11.0092534 33.0726276,15.7407166 28.872285,17.4118267 C24.7015517,19.0721807 19.9406575,17.1028127 18.2290413,12.977513 C17.5940848,11.4471548 18.3199513,9.69182044 19.8503096,9.05686394 C21.3260121,8.44458446 23.0109081,9.09766208 23.6987017,10.517269 L23.7709587,10.6781322 C24.2182701,11.7562324 25.512233,12.2914867 26.6536825,11.8370798 C27.7122374,11.4159328 28.2314927,10.3033379 27.8990417,9.29196561 L27.8457211,9.14825803 C27.2115557,7.61757183 27.9383294,5.86261286 29.4690156,5.22844746 Z" id="Stroke-15" fill="#E6007E" fill-rule="nonzero"></path>
                <path d="M27.9903928,18.7725623 C29.2205727,17.6626869 31.1175623,17.7602129 32.2274377,18.9903928 C33.3373131,20.2205727 33.2397871,22.1175623 32.0096072,23.2274377 L31.807343,23.4057819 L31.5514572,23.6231666 L31.2435996,23.8765167 L30.8854205,24.162757 C30.8216222,24.2130337 30.7557959,24.2645527 30.687976,24.3172499 C29.6871408,25.0949157 28.5779061,25.8706931 27.3825192,26.5977563 C24.3836855,28.4217192 21.3433204,29.6497622 18.3285764,29.981952 C16.6816898,30.1634197 15.1995158,28.975463 15.018048,27.3285764 C14.8430613,25.7405072 15.9414296,24.3055954 17.496769,24.0424164 L17.6714236,24.018048 C19.6780554,23.7969406 21.9500759,22.8792419 24.2646014,21.4714916 C25.2520414,20.8709068 26.1767203,20.2242042 27.0065789,19.5793901 L27.3093418,19.3410692 L27.7735203,18.9608613 L27.9310845,18.8253119 C27.9530444,18.8060153 27.9728272,18.78841 27.9903928,18.7725623 Z" id="Stroke-17" fill="#E6007E" fill-rule="nonzero"></path>
            </g>
        </g>
    </g>
</svg>