<?xml version="1.0" encoding="UTF-8"?>
<svg width="68px" height="67px" viewBox="0 0 68 67" version="1.1" xmlns="http://www.w3.org/2000/svg" xmlns:xlink="http://www.w3.org/1999/xlink">
    <title>wheeling chair</title>
    <defs>
        <filter color-interpolation-filters="auto" id="filter-1">
            <feColorMatrix in="SourceGraphic" type="matrix" values="0 0 0 0 1.000000 0 0 0 0 1.000000 0 0 0 0 1.000000 0 0 0 1.000000 0"></feColorMatrix>
        </filter>
    </defs>
    <g id="🛠-symbols" stroke="none" stroke-width="1" fill="none" fill-rule="evenodd">
        <g id="wheeling-chair" transform="translate(-11.000000, -2.000000)" filter="url(#filter-1)">
            <g transform="translate(14.000000, 5.000000)">
                <path d="M15.0328414,20.0565212 C16.6584799,19.7364186 18.2358147,20.7947645 18.5559173,22.4204029 C18.8760199,24.0460413 17.8176741,25.6233761 16.1920357,25.9434788 C8.5669821,27.4449195 3,34.071802 3,41.8141443 C3,50.744688 10.3502843,58 19.4369993,58 C26.694873,58 33.0244367,53.3276152 35.1386974,46.6181016 C35.6366573,45.0378478 37.3213823,44.1604752 38.9016361,44.6584351 C40.4818899,45.156395 41.3592624,46.84112 40.8613026,48.4213738 C37.9621761,57.621624 29.3215486,64 19.4369993,64 C7.05391689,64 -3,54.0759888 -3,41.8141443 C-3,31.1782382 4.62056434,22.1067911 15.0328414,20.0565212 Z" id="Stroke-1" fill="#E6007E" fill-rule="nonzero"></path>
                <path d="M22.5922339,9.02784139 C24.1750875,8.81068134 25.6387032,9.87049928 25.9431538,11.4182892 L25.9721586,11.5922339 L29.057,34.083 L45.380824,34.083233 L55.05,50.866 L60.4659724,47.6442251 C61.8370991,46.8283835 63.5951072,47.2316426 64.4799771,48.5340755 L64.5781309,48.6883284 C65.3939725,50.0594551 64.9907134,51.8174632 63.6882806,52.7023332 L63.5340276,52.800487 L52.8900607,59.1338113 L41.913,40.083 L23.8247848,40.083233 L20.0278414,12.4077661 C19.8026384,10.7662883 20.950756,9.25304441 22.5922339,9.02784139 Z" id="Stroke-3" fill="#E6007E" fill-rule="nonzero"></path>
                <path d="M23,-3 C18.0293939,-3 14,1.0293939 14,6 C14,10.9706061 18.0293939,15 23,15 C27.9706061,15 32,10.9706061 32,6 C32,1.0293939 27.9706061,-3 23,-3 Z M23,3 C24.6568976,3 26,4.3431024 26,6 C26,7.6568976 24.6568976,9 23,9 C21.3431024,9 20,7.6568976 20,6 C20,4.3431024 21.3431024,3 23,3 Z" id="Stroke-5" fill="#E6007E" fill-rule="nonzero"></path>
                <path d="M40,20 C41.6568542,20 43,21.3431458 43,23 C43,24.5976809 41.75108,25.9036609 40.1762728,25.9949073 L40,26 L25,26 C23.3431458,26 22,24.6568542 22,23 C22,21.4023191 23.24892,20.0963391 24.8237272,20.0050927 L25,20 L40,20 Z" id="Stroke-7" fill="#E6007E" fill-rule="nonzero"></path>
            </g>
        </g>
    </g>
</svg>