<?xml version="1.0" encoding="UTF-8"?>
<svg width="69px" height="69px" viewBox="0 0 69 69" version="1.1" xmlns="http://www.w3.org/2000/svg" xmlns:xlink="http://www.w3.org/1999/xlink">
    <title>timer</title>
    <defs>
        <filter color-interpolation-filters="auto" id="filter-1">
            <feColorMatrix in="SourceGraphic" type="matrix" values="0 0 0 0 1.000000 0 0 0 0 1.000000 0 0 0 0 1.000000 0 0 0 1.000000 0"></feColorMatrix>
        </filter>
    </defs>
    <g id="🛠-symbols" stroke="none" stroke-width="1" fill="none" fill-rule="evenodd">
        <g id="timer" transform="translate(-11.000000, -1.000000)" filter="url(#filter-1)">
            <g transform="translate(11.000000, 1.000000)">
                <path d="M65.9964526,21.3649704 C67.6563552,25.4597598 68.5042,29.8390406 68.5042,34.252 C68.5042,38.6649594 67.6563552,43.0442402 65.9962996,47.1394069 C64.28932,51.3486887 61.7518263,55.1919396 58.4721727,58.4726679 C55.1921396,61.7516263 51.3488887,64.28912 47.1398642,65.9959952 C43.0464447,67.6564307 38.6671512,68.504 34.2522,68.504 C29.8372488,68.504 25.4579553,67.6564307 21.3645358,65.9959952 C19.8017217,65.3620627 18.2893049,64.6136786 16.8375212,63.7554527 C17.0042404,65.2066305 16.0913394,66.5798972 14.6730399,66.9791874 L14.5019781,67.022035 C12.9416111,67.3653117 11.3977901,66.4261623 10.9703126,64.9077399 L10.927465,64.7366781 L9.22446501,56.9956781 C9.21157418,56.9370828 9.20048077,56.8785994 9.19114286,56.820278 C9.18599131,56.789012 9.18156055,56.757675 9.17762554,56.7262878 C9.17363491,56.6954973 9.17015248,56.6646032 9.16715486,56.63377 C9.1662556,56.6207841 9.16517497,56.6084604 9.16417027,56.5961317 C9.11604857,56.0335256 9.22970703,55.49185 9.46604765,55.0177343 C9.48443806,54.9802558 9.50361239,54.9435559 9.52359765,54.9071827 C9.53156987,54.8935389 9.53926119,54.879842 9.54705706,54.866209 C9.56344697,54.8365344 9.58113919,54.8067118 9.59939272,54.7771374 C9.61145564,54.7586735 9.62307131,54.7403312 9.6348803,54.7221198 C9.65392856,54.6916437 9.67422826,54.6615221 9.69513391,54.631696 C9.70667433,54.6162524 9.71792543,54.6005156 9.72932483,54.5848895 C9.75047427,54.5549584 9.772679,54.52569 9.79549241,54.4967447 C9.80756386,54.4822013 9.81939012,54.4674543 9.83135286,54.4528193 C9.89388467,54.3757872 9.96118871,54.3013706 10.0328797,54.2296797 L10.08682,54.1770725 C10.1089855,54.1559405 10.1314775,54.1351388 10.1542886,54.1146766 L10.0328797,54.2296797 C10.0977429,54.1648164 10.1648374,54.1035443 10.233916,54.0458632 C10.2532589,54.0295422 10.2728726,54.0135582 10.2926931,53.9978171 C10.3137292,53.9813439 10.3347404,53.9651322 10.355914,53.9492372 C10.3882159,53.9246742 10.4211166,53.9009608 10.4545174,53.8779026 C10.4678274,53.8691309 10.4805899,53.8604865 10.4934036,53.8519513 C10.7956987,53.6496032 11.1384687,53.5005681 11.5084486,53.4198152 C11.5112537,53.4203266 11.5142602,53.4196716 11.5172675,53.4190213 C11.6234853,53.3950665 11.7317319,53.3778742 11.8419059,53.3666357 C11.8621478,53.3650961 11.882106,53.3632225 11.9020777,53.3615481 C11.9348935,53.3584231 11.9679388,53.3562629 12.0011413,53.3546411 C12.0273775,53.3535498 12.0537352,53.3525569 12.0800999,53.3519096 C12.088089,53.3516291 12.0955066,53.3514877 12.1029316,53.3513731 L12.1912523,53.3512274 C12.2139501,53.351506 12.2366454,53.3520406 12.2593334,53.3528313 L12.2804409,53.3537489 L20.1994409,53.6867489 C21.8548322,53.7563594 23.1403616,55.1547496 23.0707511,56.8101409 C23.022289,57.9626086 22.3297923,58.9358111 21.3549118,59.3972858 C22.0932539,59.7769493 22.849112,60.1233605 23.6198642,60.4360048 C26.9940207,61.8046818 30.6073178,62.504 34.2522,62.504 C37.8970822,62.504 41.5103793,61.8046818 44.8847931,60.4359004 C48.3534801,59.0292524 51.5203042,56.9383673 54.2295321,54.2300273 C56.9385673,51.5201042 59.0294524,48.3532801 60.4359474,44.8849704 C61.8045651,41.5087477 62.5042,37.8949993 62.5042,34.252 C62.5042,30.6090007 61.8045651,26.9952523 60.4359474,23.6190296 C59.8135062,22.0835385 60.5536793,20.3341887 62.0891704,19.7117474 C63.6246615,19.0893062 65.3740113,19.8294793 65.9964526,21.3649704 Z M34.2514,49.6995 C35.8490809,49.6995 37.1550609,50.94842 37.2463073,52.5232272 L37.2514,52.6995 L37.2514,56.3495 C37.2514,58.0063542 35.9082542,59.3495 34.2514,59.3495 C32.6537191,59.3495 31.3477391,58.10058 31.2564927,56.5257728 L31.2514,56.3495 L31.2514,52.6995 C31.2514,51.0426458 32.5945458,49.6995 34.2514,49.6995 Z M34.252,3.90798505e-14 C38.6647756,3.90798505e-14 43.0439848,0.847777118 47.1406642,2.50800477 C48.7036412,3.14200341 50.2161396,3.89044781 51.6679452,4.7487569 C51.5006714,3.2979138 52.4137029,1.92413372 53.8323384,1.52479052 L54.0034013,1.48194754 C55.5637776,1.13871312 57.1075732,2.07790435 57.5350095,3.5963384 L57.5778525,3.76740129 L59.2738933,11.476419 C59.283383,11.5175323 59.2919967,11.5588067 59.2997345,11.6002126 L59.2808525,11.5094013 C59.3074517,11.630324 59.3263962,11.7507696 59.3380543,11.8702993 C59.3378347,11.8723873 59.3380221,11.8743941 59.3382075,11.8764009 C59.3925071,12.428602 59.2879943,12.9669209 59.0620481,13.440528 C59.0432836,13.4800535 59.023705,13.5190773 59.0032215,13.5577475 C58.9887675,13.5844156 58.974264,13.6107268 58.9593781,13.6368042 C58.9439629,13.6646307 58.9275851,13.6923573 58.910723,13.7198708 C58.8984035,13.7390563 58.8864702,13.7580141 58.8743308,13.7768329 C58.8586105,13.8021507 58.8417847,13.8274146 58.8245351,13.8524745 C58.8055614,13.8791181 58.7872532,13.9048283 58.7685515,13.9302427 C58.7519158,13.9536577 58.7339823,13.9772781 58.7156522,14.0006889 C58.6009048,14.1467238 58.4737428,14.281892 58.3349947,14.4045886 L58.4719727,14.2756679 C58.4213525,14.3262716 58.3693741,14.3746886 58.316155,14.4209189 C58.2782109,14.4541051 58.2395316,14.4860858 58.2000423,14.517107 C58.1840289,14.5293691 58.1679934,14.5416891 58.1518634,14.553825 C57.8164322,14.8069769 57.4248484,14.9917685 56.9968523,15.0851845 C56.9934734,15.0847771 56.9904741,15.08543 56.987474,15.0860783 C56.88069,15.1101752 56.7712702,15.12749 56.659885,15.1387201 C56.6413518,15.1400587 56.6229965,15.1417763 56.6046296,15.1433254 C56.5703457,15.1465949 56.5360549,15.1488289 56.5015951,15.150483 C56.4759968,15.1515207 56.450306,15.1524758 56.4246087,15.1531025 C56.4171383,15.1533722 56.4097631,15.1535127 56.4023807,15.1536266 L56.3134561,15.1537665 C56.2907584,15.1534842 56.2680632,15.1529458 56.2453754,15.1521515 L56.224875,15.1512518 L48.304875,14.8182518 C46.6494833,14.7486501 45.3639465,13.3502667 45.4335482,11.694875 C45.4820374,10.5416188 46.1754434,9.5678696 47.1513747,9.10677477 C46.4126116,8.72732831 45.6568603,8.38095266 44.8862277,8.06835684 C41.5087948,6.69961246 37.894933,6 34.252,6 C30.6089345,6 26.9952996,6.69965732 23.6204069,8.0680996 C20.1504322,9.47526978 16.9833506,11.5664025 14.2753203,14.2753203 C11.5663693,16.9842714 9.47471574,20.1519132 8.06925258,23.6190296 C6.70012228,26.9965169 6,30.6104137 6,34.252 C6,37.8935863 6.70012228,41.5074831 8.06925258,44.8849704 C8.69169381,46.4204615 7.95152065,48.1698113 6.41602955,48.7922526 C4.88053845,49.4146938 3.13118866,48.6745207 2.50874742,47.1390296 C0.848426966,43.0432095 -2.34479103e-13,38.6637924 -2.34479103e-13,34.252 C-2.34479103e-13,29.8402076 0.848426966,25.4607905 2.50874742,21.3649704 C4.21469625,17.1565905 6.75333701,13.3120223 10.0323321,10.0330273 C13.3106216,6.75366328 17.1546827,4.21554039 21.3657131,2.50785176 C25.4595045,0.847912393 29.8388567,3.90798505e-14 34.252,3.90798505e-14 Z M20.6475307,16.4151145 L20.7915203,16.5500797 L32.2736036,28.0321577 C32.8972632,27.8340757 33.5615811,27.7272 34.2509,27.7272 C34.939932,27.7272 35.6040361,27.834094 36.2275377,28.0322021 L43.5958797,20.6630797 C44.7205896,19.5383697 46.5161525,19.4933813 47.6945307,20.5281145 L47.8385203,20.6630797 C48.9632303,21.7877896 49.0082187,23.5833525 47.9734855,24.7617307 L47.8385203,24.9057203 L40.4692712,32.2752997 C40.6671405,32.8986005 40.7739,33.5624522 40.7739,34.2512 C40.7739,37.8538406 37.852968,40.7742 34.2509,40.7742 C30.647332,40.7742 27.7269,37.8543405 27.7269,34.2512 C27.7269,33.5623566 27.8336413,32.8984458 28.0314914,32.275112 L16.5488797,20.7927203 C15.3773068,19.6211475 15.3773068,17.7216525 16.5488797,16.5500797 C17.6735896,15.4253697 19.4691525,15.3803813 20.6475307,16.4151145 Z M56.3486,31.2532 C58.0054542,31.2532 59.3486,32.5963458 59.3486,34.2532 C59.3486,35.8508809 58.09968,37.1568609 56.5248728,37.2481073 L56.3486,37.2532 L52.6986,37.2532 C51.0417458,37.2532 49.6986,35.9100542 49.6986,34.2532 C49.6986,32.6555191 50.94752,31.3495391 52.5223272,31.2582927 L52.6986,31.2532 L56.3486,31.2532 Z M15.8018,31.2488 C17.4586542,31.2488 18.8018,32.5919458 18.8018,34.2488 C18.8018,35.8464809 17.55288,37.1524609 15.9780728,37.2437073 L15.8018,37.2488 L12.1518,37.2488 C10.4949458,37.2488 9.1518,35.9056542 9.1518,34.2488 C9.1518,32.6511191 10.40072,31.3451391 11.9755272,31.2538927 L12.1518,31.2488 L15.8018,31.2488 Z M34.249,9.153 C35.8466809,9.153 37.1526609,10.40192 37.2439073,11.9767272 L37.249,12.153 L37.249,15.803 C37.249,17.4598542 35.9058542,18.803 34.249,18.803 C32.6513191,18.803 31.3453391,17.55408 31.2540927,15.9792728 L31.249,15.803 L31.249,12.153 C31.249,10.4961458 32.5921458,9.153 34.249,9.153 Z" id="Combined-Shape" fill="#E6007E" fill-rule="nonzero"></path>
                <line x1="12.1518" y1="34.2488" x2="15.8018" y2="34.2488" id="Fill-23" fill="#E6007E"></line>
                <line x1="34.249" y1="15.803" x2="34.249" y2="12.153" id="Fill-27" fill="#E6007E"></line>
                <line x1="56.3486" y1="34.2532" x2="52.6986" y2="34.2532" id="Fill-31" fill="#E6007E"></line>
                <line x1="34.2514" y1="52.6995" x2="34.2514" y2="56.3495" id="Fill-35" fill="#E6007E"></line>
            </g>
        </g>
    </g>
</svg>